<svg width="284" height="170" viewBox="0 0 284 170" fill="none" xmlns="http://www.w3.org/2000/svg">
<path opacity="0.1" d="M138.216 61.9379C138.216 61.9379 126.246 87.4287 100.627 86.4225C65.7223 85.0808 40.3272 138.857 91.0056 168.261H200.417C200.417 168.261 247.404 130.919 218.429 77.1429C197.956 39.3541 145.823 47.292 138.216 61.9379Z" fill="#61A9FF"/>
<path d="M78.3638 42.4844H212.947" stroke="#ECEFF5" stroke-width="0.6565" stroke-miterlimit="10"/>
<path d="M211.157 117.503H80.0419C79.0351 117.503 78.252 116.721 78.252 115.715V31.3044C78.252 30.2982 79.0351 29.5156 80.0419 29.5156H211.157C212.164 29.5156 212.947 30.2982 212.947 31.3044V115.826C212.947 116.721 212.164 117.503 211.157 117.503Z" stroke="#ECEFF5" stroke-width="0.6565" stroke-miterlimit="10"/>
<path opacity="0.72" d="M221.337 94.1374H202.99C202.43 94.1374 201.983 93.6902 201.983 93.1312C201.983 92.5722 202.43 92.125 202.99 92.125H221.337C221.896 92.125 222.344 92.5722 222.344 93.1312C222.344 93.6902 221.896 94.1374 221.337 94.1374Z" fill="#61A9FF"/>
<path d="M139.558 2.01243H109.688C109.129 2.01243 108.681 1.56522 108.681 1.00621C108.681 0.447205 109.129 0 109.688 0H139.558C140.117 0 140.565 0.447205 140.565 1.00621C140.565 1.56522 140.117 2.01243 139.558 2.01243Z" fill="#FF6B93"/>
<path d="M227.714 129.13H225.364C224.693 129.13 224.246 128.571 224.246 128.012V125.776C224.246 125.105 224.805 124.658 225.364 124.658H227.714C228.385 124.658 228.832 125.217 228.832 125.776V128.012C228.832 128.683 228.273 129.13 227.714 129.13Z" fill="#61A9FF"/>
<path d="M82.1387 37.0478C89.8967 33.9869 93.7029 25.2205 90.64 17.4674C87.5772 9.71434 78.8052 5.91057 71.0471 8.97145C63.2891 12.0323 59.4829 20.7988 62.5458 28.5519C65.6086 36.3049 74.3806 40.1087 82.1387 37.0478Z" fill="#FF6B93"/>
<path d="M74.1266 27.9508C76.5878 27.9508 79.049 28.0626 81.3983 27.839C82.0695 27.839 82.7408 26.6092 81.8458 26.2738C82.1814 26.0502 82.6289 25.9384 82.7408 25.4912C82.8527 25.1558 82.7408 24.5968 82.2933 24.485C83.1883 24.7086 83.5239 23.367 82.8527 22.9198C83.1883 22.5844 83.5239 22.249 83.5239 21.8018C83.6358 21.3545 83.412 20.7955 82.9645 20.5719C82.7408 20.4601 82.4052 20.4601 82.0695 20.4601C81.0627 20.4601 80.0558 20.4601 78.9371 20.4601C79.1609 18.8949 79.2727 17.1061 78.4896 15.6527C78.2659 15.2055 77.5946 14.7583 77.0353 15.0937C76.5878 15.4291 76.6997 16.2117 76.6997 16.6589C76.8115 18.6713 75.6928 20.6837 73.9028 21.5782C74.0147 21.5782 74.1266 25.8266 74.1266 27.9508Z" fill="#FDFDFD"/>
<path d="M73.2314 21.5781H69.5396V27.9508H73.2314V21.5781Z" fill="#FDFDFD"/>
<path d="M223.575 61.4912H182.853C181.958 61.4912 181.175 60.7086 181.175 59.8142V19.5657C181.175 18.6713 181.958 17.8887 182.853 17.8887H223.575C224.47 17.8887 225.253 18.6713 225.253 19.5657V59.926C225.253 60.7086 224.47 61.4912 223.575 61.4912Z" fill="#ECEFF5"/>
<path d="M223.575 61.4912H182.853C181.958 61.4912 181.175 60.7086 181.175 59.8142V19.5657C181.175 18.6713 181.958 17.8887 182.853 17.8887H223.575C224.47 17.8887 225.253 18.6713 225.253 19.5657V59.926C225.253 60.7086 224.47 61.4912 223.575 61.4912Z" fill="#ECEFF5"/>
<path d="M232.525 51.3174H192.586C191.467 51.3174 190.572 50.423 190.572 49.305V9.72727C190.572 8.60926 191.467 7.71484 192.586 7.71484H232.525C233.643 7.71484 234.538 8.60926 234.538 9.72727V49.1932C234.538 50.423 233.643 51.3174 232.525 51.3174Z" fill="#FF9777"/>
<path fill-rule="evenodd" clip-rule="evenodd" d="M220.218 22.0259H205.563L204.892 19.119C204.78 18.56 204.221 18.2246 203.661 18.2246H201.536C200.976 18.2246 200.529 18.6718 200.529 19.2308C200.529 19.7898 200.976 20.237 201.536 20.237H203.214L206.122 31.9762C206.346 32.8706 207.241 33.6532 208.248 33.6532H217.757C218.764 33.6532 219.659 32.9824 219.883 31.9762L221.896 24.1501C222.008 23.0321 221.225 22.0259 220.218 22.0259ZM217.869 31.3054C217.869 31.4172 217.757 31.529 217.645 31.529H208.136C208.024 31.529 207.912 31.4172 207.912 31.3054L206.011 23.9265H219.771L217.869 31.3054Z" fill="white"/>
<path fill-rule="evenodd" clip-rule="evenodd" d="M208.136 35.3301C207.129 35.3301 206.234 36.2245 206.234 37.2307C206.234 38.2369 207.129 39.1313 208.136 39.1313C209.143 39.1313 210.038 38.2369 210.038 37.2307C210.038 36.2245 209.143 35.3301 208.136 35.3301Z" fill="white"/>
<path fill-rule="evenodd" clip-rule="evenodd" d="M217.646 35.3301C216.639 35.3301 215.744 36.2245 215.744 37.2307C215.744 38.2369 216.639 39.1313 217.646 39.1313C218.652 39.1313 219.547 38.2369 219.547 37.2307C219.547 36.2245 218.652 35.3301 217.646 35.3301Z" fill="white"/>
<path d="M96.2633 93.914H60.9115C60.0165 93.914 59.2334 93.1313 59.2334 92.2369V65.6282C59.2334 64.7338 60.0165 63.9512 60.9115 63.9512H96.2633C97.1583 63.9512 97.9414 64.7338 97.9414 65.6282V92.2369C97.8295 93.2431 97.1583 93.914 96.2633 93.914Z" fill="#7EB9FF"/>
<path d="M77.5806 87.318C82.3998 87.318 86.3066 83.4137 86.3066 78.5975C86.3066 73.7813 82.3998 69.877 77.5806 69.877C72.7613 69.877 68.8545 73.7813 68.8545 78.5975C68.8545 83.4137 72.7613 87.318 77.5806 87.318Z" fill="#7EB9FF" stroke="white" stroke-width="1.2043" stroke-miterlimit="10" stroke-linecap="round" stroke-linejoin="round"/>
<path d="M74.1123 79.2676L76.7973 81.1682L80.9365 76.0254" fill="#7EB9FF"/>
<path d="M74.1123 79.2676L76.7973 81.1682L80.9365 76.0254" stroke="white" stroke-width="1.2043" stroke-miterlimit="10" stroke-linecap="round" stroke-linejoin="round"/>
<path d="M181.167 147.463H202.647C208.241 147.463 212.827 152.047 212.827 157.637C212.827 163.227 208.241 167.811 202.647 167.811H177.476L181.167 147.463Z" fill="#E3AF9A"/>
<path d="M210.142 150.928L193.473 125.102L177.364 132.033L180.272 157.636L210.142 150.928Z" fill="#E3AF9A"/>
<path d="M182.398 147.463H202.535" stroke="#1C2337" stroke-width="0.6565" stroke-miterlimit="10" stroke-linecap="round" stroke-linejoin="round"/>
<path d="M145.816 91.2246C145.816 91.2246 124.448 91.2246 108.786 106.653V149.92C108.786 149.92 183.964 151.038 183.964 149.92C183.964 148.802 183.964 104.753 183.964 104.753C183.964 104.753 168.526 91.2246 145.816 91.2246Z" fill="#C6D3ED"/>
<path d="M145.816 91.2255C145.816 91.2255 138.544 91.0019 130.825 93.7969C130.825 93.7969 132.838 101.288 145.704 101.288C161.03 101.288 161.03 93.0143 161.03 93.0143C161.03 93.0143 151.297 90.3311 145.816 91.2255Z" fill="#E3AF9A"/>
<path d="M114.044 147.463H92.676C87.0824 147.463 82.4956 152.047 82.4956 157.637C82.4956 163.227 87.0824 167.811 92.676 167.811H117.847L114.044 147.463Z" fill="#E3AF9A"/>
<path d="M84.8452 151.153L98.1581 129.352L117.848 132.035L114.939 157.637L84.8452 151.153Z" fill="#E3AF9A"/>
<path d="M108.785 147.463H92.6758" stroke="#1C2337" stroke-width="0.6565" stroke-miterlimit="10" stroke-linecap="round" stroke-linejoin="round"/>
<path d="M111.918 103.748C111.918 103.748 99.3885 113.139 87.0825 133.711C87.0825 133.711 90.6624 145.674 113.485 147.462L111.918 103.748Z" fill="#C6D3ED"/>
<path d="M183.964 104.754C183.964 104.754 195.599 113.139 207.793 133.71C207.793 133.71 205.108 145.673 182.398 147.462L183.964 104.754Z" fill="#C6D3ED"/>
<path d="M180.496 167.809H112.142C110.24 167.809 108.786 166.244 108.786 164.455V121.299C108.786 119.399 110.352 117.945 112.142 117.945H180.496C182.398 117.945 183.852 119.511 183.852 121.299V164.455C183.964 166.355 182.398 167.809 180.496 167.809Z" fill="#ECEFF5"/>
<path d="M150.962 142.877C150.962 145.448 148.948 147.461 146.375 147.461C143.802 147.461 141.788 145.448 141.788 142.877C141.788 140.305 143.802 138.293 146.375 138.293C148.948 138.293 150.962 140.305 150.962 142.877Z" fill="#283252"/>
<path d="M133.845 61.5981C133.957 65.1758 131.16 68.1944 127.58 68.3062C124 68.418 120.98 65.623 120.868 62.0453C120.756 58.4677 123.553 55.449 127.133 55.3372C130.713 55.2254 133.733 58.0205 133.845 61.5981Z" fill="#E3AF9A"/>
<path d="M123.665 60.815C123.665 60.815 126.238 59.5852 128.699 64.0573" stroke="#283252" stroke-width="0.4726" stroke-miterlimit="10" stroke-linecap="round" stroke-linejoin="round"/>
<path d="M133.398 33.1992C133.398 33.1992 126.126 34.0936 125.119 41.5843C123.777 51.8701 128.475 59.3608 128.475 59.3608L128.699 42.7023L133.398 33.1992Z" fill="#283252"/>
<path d="M164.051 68.3049C167.634 68.3049 170.539 65.4017 170.539 61.8204C170.539 58.2391 167.634 55.3359 164.051 55.3359C160.467 55.3359 157.562 58.2391 157.562 61.8204C157.562 65.4017 160.467 68.3049 164.051 68.3049Z" fill="#E3AF9A"/>
<path d="M167.743 60.814C167.743 60.814 165.17 59.5842 162.82 64.1681" stroke="#283252" stroke-width="0.4726" stroke-miterlimit="10" stroke-linecap="round" stroke-linejoin="round"/>
<path d="M154.094 75.685C154.094 75.685 150.403 78.2565 147.046 78.9273C143.69 79.5981 140.446 77.5856 140.446 77.5856L136.53 75.3496L135.859 94.6913L135.3 95.0267C141.005 99.7223 149.172 99.7223 154.878 95.1385L154.766 94.4677L154.094 75.685Z" fill="#E3AF9A"/>
<path d="M135.412 75.2363C135.412 75.2363 138.097 85.9693 146.263 85.7457C153.199 85.6339 154.989 75.2363 154.989 75.2363H135.412Z" fill="#283252"/>
<path d="M163.268 50.5299C163.268 57.9088 162.261 64.1697 161.254 68.7535C160.247 73.1138 157.338 76.2442 153.311 78.7039L152.528 79.1511C148.277 81.8343 142.683 81.8343 138.208 79.3747C133.733 76.8032 130.713 73.561 129.706 68.7535C127.916 60.1448 127.692 50.6417 127.692 50.6417C127.692 50.6417 125.231 30.7411 144.361 31.0765C163.491 31.3001 163.268 50.5299 163.268 50.5299Z" fill="#E3AF9A"/>
<path d="M152.752 50.4162C152.752 50.4162 148.836 49.6336 148.612 51.7579C148.612 51.7579 148.5 53.2113 151.968 53.7703C155.436 54.3293 156.779 54.2175 157.226 52.8759C157.674 51.6461 154.653 50.6399 152.752 50.4162Z" fill="#283252"/>
<path d="M135.859 50.5276C135.859 50.5276 131.831 50.7512 132.167 52.7636C132.167 52.7636 132.391 54.217 135.859 53.9934C139.327 53.7698 140.669 53.3226 140.781 51.981C140.781 50.5276 137.649 50.304 135.859 50.5276Z" fill="#283252"/>
<path d="M137.313 61.148C138.178 61.148 138.879 60.4473 138.879 59.5828C138.879 58.7184 138.178 58.0176 137.313 58.0176C136.448 58.0176 135.747 58.7184 135.747 59.5828C135.747 60.4473 136.448 61.148 137.313 61.148Z" fill="#283252"/>
<path d="M152.416 61.148C153.281 61.148 153.982 60.4473 153.982 59.5828C153.982 58.7184 153.281 58.0176 152.416 58.0176C151.551 58.0176 150.85 58.7184 150.85 59.5828C150.85 60.4473 151.551 61.148 152.416 61.148Z" fill="#283252"/>
<path d="M145.144 65.3974H143.466V61.4844" stroke="#283252" stroke-width="0.4726" stroke-miterlimit="10" stroke-linecap="round" stroke-linejoin="round"/>
<path d="M139.774 68.752C139.774 68.752 141.34 70.988 148.5 69.9818" stroke="#283252" stroke-width="0.4726" stroke-miterlimit="10" stroke-linecap="round" stroke-linejoin="round"/>
<path d="M128.475 60.0327C128.475 60.0327 132.614 37.337 129.929 34.3184C129.929 34.3184 120.308 43.0389 128.475 60.0327Z" fill="#283252"/>
<path d="M162.485 59.1376C162.485 59.1376 155.66 39.5723 160.135 36.3301C160.247 36.3301 169.533 41.0257 162.485 59.1376Z" fill="#283252"/>
<path d="M155.325 33.0889C155.325 33.0889 165.393 30.2939 166.4 40.8032C167.183 48.2939 162.373 59.2505 162.373 59.2505L162.149 42.5921L155.325 33.0889Z" fill="#283252"/>
<path d="M152.976 33.7598C152.976 33.7598 152.752 47.0641 162.82 47.1759C162.82 47.1759 164.722 35.325 152.976 33.7598Z" fill="#283252"/>
<path d="M157.115 39.0132C157.115 39.0132 150.067 38.3424 142.459 41.8083C134.964 45.1623 122.658 46.9511 120.756 38.1188C118.854 28.8393 129.035 20.7896 147.717 26.9387C162.485 31.7461 158.122 37.2244 158.122 37.2244L157.115 39.0132Z" fill="#283252"/>
<path d="M155.325 34.0941C155.325 34.0941 162.932 29.063 165.617 38.4543L159.8 40.4667L155.325 34.0941Z" fill="#283252"/>
<path d="M158.681 34.9887C158.681 34.9887 158.345 26.6036 146.487 21.6843C145.48 21.2371 144.361 21.3489 143.466 22.0197C142.012 23.026 141.565 25.0384 142.683 26.4918L144.921 29.6222L158.681 34.9887Z" fill="#283252"/>
<path d="M1 168H283" stroke="#1C2337" stroke-width="0.6565" stroke-miterlimit="10" stroke-linecap="round" stroke-linejoin="round"/>
<g opacity="0.7">
<path opacity="0.7" d="M266.549 144.71V139.4H240V163.958C240 164.638 240.134 165.311 240.394 165.939C240.654 166.567 241.036 167.138 241.516 167.619C241.997 168.1 242.568 168.481 243.196 168.741C243.824 169.001 244.497 169.135 245.177 169.135H261.372C262.745 169.135 264.062 168.59 265.033 167.619C266.003 166.648 266.549 165.331 266.549 163.958V158.516C268.377 158.512 270.13 157.783 271.421 156.489C272.713 155.195 273.438 153.441 273.438 151.613C273.438 149.784 272.713 148.031 271.421 146.737C270.13 145.443 268.377 144.714 266.549 144.71ZM266.549 155.861V147.365C267.675 147.365 268.756 147.813 269.553 148.609C270.349 149.406 270.797 150.486 270.797 151.613C270.797 152.739 270.349 153.82 269.553 154.617C268.756 155.413 267.675 155.861 266.549 155.861Z" fill="url(#paint0_linear)"/>
</g>
<path d="M265.695 145.541C264.449 145.541 263.23 145.911 262.194 146.603C261.157 147.296 260.349 148.28 259.872 149.432C259.395 150.583 259.271 151.85 259.514 153.073C259.757 154.296 260.357 155.419 261.239 156.3C262.12 157.181 263.243 157.782 264.465 158.025C265.688 158.268 266.955 158.143 268.107 157.666C269.259 157.189 270.243 156.381 270.935 155.345C271.628 154.308 271.998 153.09 271.998 151.843C271.998 150.172 271.334 148.569 270.152 147.387C268.97 146.205 267.367 145.541 265.695 145.541ZM265.695 155.722C264.928 155.722 264.178 155.494 263.54 155.068C262.903 154.642 262.405 154.036 262.112 153.328C261.818 152.619 261.741 151.839 261.891 151.087C262.041 150.334 262.41 149.643 262.953 149.101C263.495 148.559 264.186 148.189 264.938 148.04C265.691 147.89 266.471 147.967 267.179 148.26C267.888 148.554 268.494 149.051 268.92 149.689C269.346 150.327 269.574 151.076 269.574 151.843C269.574 152.872 269.165 153.859 268.438 154.586C267.71 155.313 266.724 155.722 265.695 155.722Z" fill="#A0CCFF"/>
<path d="M241.455 140.693H265.695V164.685C265.695 165.522 265.362 166.325 264.77 166.918C264.178 167.51 263.374 167.842 262.537 167.842H244.613C243.775 167.842 242.972 167.51 242.38 166.918C241.787 166.325 241.455 165.522 241.455 164.685V140.693Z" fill="#A0CCFF"/>
<path opacity="0.1" d="M261.331 140.693V163.116C261.331 164.369 260.833 165.572 259.947 166.458C259.06 167.344 257.858 167.842 256.604 167.842H259.028C260.282 167.842 261.484 167.344 262.371 166.458C263.257 165.572 263.755 164.369 263.755 163.116V140.693H261.331Z" fill="black"/>
<path d="M246.238 122.62C245.829 122.69 245.368 122.801 245.167 123.164C244.849 123.74 245.425 124.39 245.951 124.786C246.923 125.518 247.947 126.237 248.607 127.258C249.267 128.28 249.475 129.705 248.753 130.684C247.81 131.962 245.562 132.237 245.344 133.81C245.204 134.82 246.077 135.681 246.962 136.188C249.146 137.439 251.96 137.772 253.542 139.73C254.196 138.384 255.66 137.607 257.118 137.274C258.577 136.942 260.093 136.967 261.571 136.742C262.049 136.669 262.587 136.523 262.8 136.09C263.214 135.251 262.035 134.245 262.442 133.402C262.752 132.761 263.661 132.811 264.325 132.554C265.406 132.136 265.852 130.745 265.545 129.627C265.238 128.509 264.371 127.636 263.46 126.92C261.003 124.989 258.05 123.854 255.062 123.038C253.673 122.658 252.042 122.062 250.599 122.005C249.205 121.949 247.617 122.385 246.238 122.62Z" fill="#EEEEEE"/>
<path d="M28.3004 142.396C33.4764 147.95 33.7439 156.114 33.7439 156.114C33.7439 156.114 25.6195 155.272 20.4435 149.718C15.2675 144.164 15 136 15 136C15 136 23.1244 136.842 28.3004 142.396Z" fill="#61A9FF"/>
<path d="M44.5952 151.066C39.041 156.242 30.8774 156.51 30.8774 156.51C30.8774 156.51 31.7191 148.385 37.2733 143.209C42.8275 138.033 50.991 137.766 50.991 137.766C50.991 137.766 50.1494 145.89 44.5952 151.066Z" fill="#61A9FF"/>
<path d="M43.2144 167.55H22.7858C22.3939 167.55 22.0099 167.44 21.6777 167.232C21.3454 167.024 21.0783 166.727 20.9069 166.375L16.4591 157.232C16.3041 156.914 16.2327 156.561 16.2515 156.207C16.2703 155.853 16.3787 155.51 16.5666 155.21C16.7545 154.91 17.0156 154.662 17.3255 154.49C17.6354 154.319 17.9838 154.229 18.338 154.229H47.6622C48.0165 154.229 48.3649 154.319 48.6748 154.49C48.9846 154.662 49.2458 154.91 49.4337 155.21C49.6215 155.51 49.73 155.853 49.7488 156.207C49.7676 156.561 49.6962 156.914 49.5412 157.232L45.0934 166.375C44.9219 166.727 44.6548 167.024 44.3226 167.232C43.9904 167.44 43.6063 167.55 43.2144 167.55Z" fill="#283252"/>
<defs>
<linearGradient id="paint0_linear" x1="256.726" y1="169.135" x2="256.726" y2="139.4" gradientUnits="userSpaceOnUse">
<stop stop-color="#808080" stop-opacity="0.25"/>
<stop offset="0.53514" stop-color="#808080" stop-opacity="0.12"/>
<stop offset="1" stop-color="#808080" stop-opacity="0.1"/>
</linearGradient>
</defs>
</svg>
